# xmcd
#
# Track frame offsets: 
#        150
#        18110
#        32782
#        54658
#        65955
#        93805
#
# Disc length: 1387 seconds
#
# Revision: 0
# Processed by: cddbd v1.5PL3 Copyright (c) Steve Scherf et al.
# Submitted via: ExactAudioCopy v0.95a5
#
DISCID=48056906
DTITLE=Four Contry Stories - More Country Stories
DYEAR=2004
DGENRE=Country
TTITLE0=Sea of Heartbreak
TTITLE1=Honky Tonk Man
TTITLE2=Dead Flowers
TTITLE3=Seagull Woman
TTITLE4=Baton Rouge
TTITLE5=Plastic Bag
EXTD=
EXTT0=
EXTT1=
EXTT2=
EXTT3=
EXTT4=
EXTT5=
PLAYORDER=
